HIERARCHY
ROOT Hips
{
  OFFSET 184.571 101.689 6.99006
  CHANNELS 6 Xposition Yposition Zposition Zrotation Xrotation Yrotation
  JOINT Spine
  {
    OFFSET 0 6.79576 0
    CHANNELS 6 Xposition Yposition Zposition Zrotation Xrotation Yrotation
    JOINT Spine1
    {
      OFFSET 0 6.79575 0
      CHANNELS 6 Xposition Yposition Zposition Zrotation Xrotation Yrotation
      JOINT Spine2
      {
        OFFSET 0 6.79575 0
        CHANNELS 6 Xposition Yposition Zposition Zrotation Xrotation Yrotation
        JOINT Spine3
        {
          OFFSET 0 6.79575 0
          CHANNELS 6 Xposition Yposition Zposition Zrotation Xrotation Yrotation
          JOINT Neck
          {
            OFFSET -9.25391e-05 14.441 -0.000277691
            CHANNELS 6 Xposition Yposition Zposition Zrotation Xrotation Yrotation
            JOINT Head
            {
              OFFSET 0 9.17427 0
              CHANNELS 6 Xposition Yposition Zposition Zrotation Xrotation Yrotation
              End Site
              {
                OFFSET 0 17.2017 0
              }
            }
          }
          JOINT LeftShoulder
          {
            OFFSET 4.99989 17 -0.000516942
            CHANNELS 6 Xposition Yposition Zposition Zrotation Xrotation Yrotation
            JOINT LeftShoulder2
            {
              OFFSET 6.5 0 0
              CHANNELS 6 Xposition Yposition Zposition Zrotation Xrotation Yrotation
              JOINT LeftArm
              {
                OFFSET 6.5 -1.26295e-05 0.000212689
                CHANNELS 6 Xposition Yposition Zposition Zrotation Xrotation Yrotation
                JOINT LeftForeArm
                {
                  OFFSET -2.87388e-05 -37.9535 -2
                  CHANNELS 6 Xposition Yposition Zposition Zrotation Xrotation Yrotation
                  JOINT LeftHand
                  {
                    OFFSET 0 -30.0465 2
                    CHANNELS 6 Xposition Yposition Zposition Zrotation Xrotation Yrotation
                    JOINT LeftHandThumb1
                    {
                      OFFSET -0.500002 -1.49999 2.65
                      CHANNELS 6 Xposition Yposition Zposition Zrotation Xrotation Yrotation
                      JOINT LeftHandThumb2
                      {
                        OFFSET 0 -3.8 3.7
                        CHANNELS 6 Xposition Yposition Zposition Zrotation Xrotation Yrotation
                        JOINT LeftHandThumb3
                        {
                          OFFSET 0 -3 2.7
                          CHANNELS 6 Xposition Yposition Zposition Zrotation Xrotation Yrotation
                          End Site
                          {
                            OFFSET -1.21387e-05 -2.29999 1.79999
                          }
                        }
                      }
                    }
                    JOINT LeftHandIndex
                    {
                      OFFSET 0 -1.9 1.6
                      CHANNELS 6 Xposition Yposition Zposition Zrotation Xrotation Yrotation
                      JOINT LeftHandIndex1
                      {
                        OFFSET 0 -8.3 1.89999
                        CHANNELS 6 Xposition Yposition Zposition Zrotation Xrotation Yrotation
                        JOINT LeftHandIndex2
                        {
                          OFFSET -1.12986e-05 -4.5 0
                          CHANNELS 6 Xposition Yposition Zposition Zrotation Xrotation Yrotation
                          JOINT LeftHandIndex3
                          {
                            OFFSET 1.5026e-05 -3.4 0
                            CHANNELS 6 Xposition Yposition Zposition Zrotation Xrotation Yrotation
                            End Site
                            {
                              OFFSET 0 -2.6 0
                            }
                          }
                        }
                      }
                    }
                    JOINT LeftHandMiddle
                    {
                      OFFSET -0.250003 -2.2 0.399997
                      CHANNELS 6 Xposition Yposition Zposition Zrotation Xrotation Yrotation
                      JOINT LeftHandMiddle1
                      {
                        OFFSET 0 -8.3 1.00001
                        CHANNELS 6 Xposition Yposition Zposition Zrotation Xrotation Yrotation
                        JOINT LeftHandMiddle2
                        {
                          OFFSET 0 -4.65 0
                          CHANNELS 6 Xposition Yposition Zposition Zrotation Xrotation Yrotation
                          JOINT LeftHandMiddle3
                          {
                            OFFSET 0 -3.3 0
                            CHANNELS 6 Xposition Yposition Zposition Zrotation Xrotation Yrotation
                            End Site
                            {
                              OFFSET 0 -2.7 0
                            }
                          }
                        }
                      }
                    }
                    JOINT LeftHandRing
                    {
                      OFFSET -0.500009 -2.14999 -0.8
                      CHANNELS 6 Xposition Yposition Zposition Zrotation Xrotation Yrotation
                      JOINT LeftHandRing1
                      {
                        OFFSET 0 -7.75 -0.199997
                        CHANNELS 6 Xposition Yposition Zposition Zrotation Xrotation Yrotation
                        JOINT LeftHandRing2
                        {
                          OFFSET 0 -3.8 0
                          CHANNELS 6 Xposition Yposition Zposition Zrotation Xrotation Yrotation
                          JOINT LeftHandRing3
                          {
                            OFFSET 1.21201e-05 -3.4 0
                            CHANNELS 6 Xposition Yposition Zposition Zrotation Xrotation Yrotation
                            End Site
                            {
                              OFFSET 0 -2.60001 0
                            }
                          }
                        }
                      }
                    }
                    JOINT LeftHandPinky
                    {
                      OFFSET -0.749994 -1.75 -1.85
                      CHANNELS 6 Xposition Yposition Zposition Zrotation Xrotation Yrotation
                      JOINT LeftHandPinky1
                      {
                        OFFSET 0 -7.15 -1
                        CHANNELS 6 Xposition Yposition Zposition Zrotation Xrotation Yrotation
                        JOINT LeftHandPinky2
                        {
                          OFFSET 0 -3 0
                          CHANNELS 6 Xposition Yposition Zposition Zrotation Xrotation Yrotation
                          JOINT LeftHandPinky3
                          {
                            OFFSET 0 -2.34999 0
                            CHANNELS 6 Xposition Yposition Zposition Zrotation Xrotation Yrotation
                            End Site
                            {
                              OFFSET 0 -2.1 0
                            }
                          }
                        }
                      }
                    }
                  }
                }
              }
            }
          }
          JOINT RightShoulder
          {
            OFFSET -5.00011 17 -0.000138022
            CHANNELS 6 Xposition Yposition Zposition Zrotation Xrotation Yrotation
            JOINT RightShoulder2
            {
              OFFSET -6.5 0 0
              CHANNELS 6 Xposition Yposition Zposition Zrotation Xrotation Yrotation
              JOINT RightArm
              {
                OFFSET -6.49999 1.07465e-05 -3.00535e-05
                CHANNELS 6 Xposition Yposition Zposition Zrotation Xrotation Yrotation
                JOINT RightForeArm
                {
                  OFFSET 0 -37.9535 -2
                  CHANNELS 6 Xposition Yposition Zposition Zrotation Xrotation Yrotation
                  JOINT RightHand
                  {
                    OFFSET 0 -30.0465 2
                    CHANNELS 6 Xposition Yposition Zposition Zrotation Xrotation Yrotation
                    JOINT RightHandThumb1
                    {
                      OFFSET 0.500002 -1.50001 2.65
                      CHANNELS 6 Xposition Yposition Zposition Zrotation Xrotation Yrotation
                      JOINT RightHandThumb2
                      {
                        OFFSET 0 -3.8 3.7
                        CHANNELS 6 Xposition Yposition Zposition Zrotation Xrotation Yrotation
                        JOINT RightHandThumb3
                        {
                          OFFSET -1.58701e-05 -3.00001 2.70001
                          CHANNELS 6 Xposition Yposition Zposition Zrotation Xrotation Yrotation
                          End Site
                          {
                            OFFSET 0 -2.29999 1.79999
                          }
                        }
                      }
                    }
                    JOINT RightHandIndex
                    {
                      OFFSET 0 -1.9 1.6
                      CHANNELS 6 Xposition Yposition Zposition Zrotation Xrotation Yrotation
                      JOINT RightHandIndex1
                      {
                        OFFSET 0 -8.30001 1.89999
                        CHANNELS 6 Xposition Yposition Zposition Zrotation Xrotation Yrotation
                        JOINT RightHandIndex2
                        {
                          OFFSET 0 -4.50001 0
                          CHANNELS 6 Xposition Yposition Zposition Zrotation Xrotation Yrotation
                          JOINT RightHandIndex3
                          {
                            OFFSET 0 -3.4 0
                            CHANNELS 6 Xposition Yposition Zposition Zrotation Xrotation Yrotation
                            End Site
                            {
                              OFFSET 1.0738e-05 -2.59999 0
                            }
                          }
                        }
                      }
                    }
                    JOINT RightHandMiddle
                    {
                      OFFSET 0.249991 -2.2 0.400002
                      CHANNELS 6 Xposition Yposition Zposition Zrotation Xrotation Yrotation
                      JOINT RightHandMiddle1
                      {
                        OFFSET 1.215e-05 -8.29999 0.999994
                        CHANNELS 6 Xposition Yposition Zposition Zrotation Xrotation Yrotation
                        JOINT RightHandMiddle2
                        {
                          OFFSET 0 -4.65001 0
                          CHANNELS 6 Xposition Yposition Zposition Zrotation Xrotation Yrotation
                          JOINT RightHandMiddle3
                          {
                            OFFSET 0 -3.29999 0
                            CHANNELS 6 Xposition Yposition Zposition Zrotation Xrotation Yrotation
                            End Site
                            {
                              OFFSET 1.65007e-05 -2.70001 0
                            }
                          }
                        }
                      }
                    }
                    JOINT RightHandRing
                    {
                      OFFSET 0.500003 -2.15001 -0.799998
                      CHANNELS 6 Xposition Yposition Zposition Zrotation Xrotation Yrotation
                      JOINT RightHandRing1
                      {
                        OFFSET 0 -7.75 -0.200002
                        CHANNELS 6 Xposition Yposition Zposition Zrotation Xrotation Yrotation
                        JOINT RightHandRing2
                        {
                          OFFSET 0 -3.8 0
                          CHANNELS 6 Xposition Yposition Zposition Zrotation Xrotation Yrotation
                          JOINT RightHandRing3
                          {
                            OFFSET 0 -3.40001 0
                            CHANNELS 6 Xposition Yposition Zposition Zrotation Xrotation Yrotation
                            End Site
                            {
                              OFFSET 0 -2.6 0
                            }
                          }
                        }
                      }
                    }
                    JOINT RightHandPinky
                    {
                      OFFSET 0.749994 -1.75 -1.85
                      CHANNELS 6 Xposition Yposition Zposition Zrotation Xrotation Yrotation
                      JOINT RightHandPinky1
                      {
                        OFFSET 0 -7.15 -0.999999
                        CHANNELS 6 Xposition Yposition Zposition Zrotation Xrotation Yrotation
                        JOINT RightHandPinky2
                        {
                          OFFSET 0 -3.00001 0
                          CHANNELS 6 Xposition Yposition Zposition Zrotation Xrotation Yrotation
                          JOINT RightHandPinky3
                          {
                            OFFSET 0 -2.34999 0
                            CHANNELS 6 Xposition Yposition Zposition Zrotation Xrotation Yrotation
                            End Site
                            {
                              OFFSET 0 -2.09999 0
                            }
                          }
                        }
                      }
                    }
                  }
                }
              }
            }
          }
        }
      }
    }
  }
  JOINT LeftUpLeg
  {
    OFFSET 10 0 0
    CHANNELS 6 Xposition Yposition Zposition Zrotation Xrotation Yrotation
    JOINT LeftLeg
    {
      OFFSET 0 -49.4477 -0.999998
      CHANNELS 6 Xposition Yposition Zposition Zrotation Xrotation Yrotation
      JOINT LeftFoot
      {
        OFFSET 0 -45.0524 -2
        CHANNELS 6 Xposition Yposition Zposition Zrotation Xrotation Yrotation
        JOINT LeftToeBase
        {
          OFFSET 0 -7.5 12.5
          CHANNELS 6 Xposition Yposition Zposition Zrotation Xrotation Yrotation
          JOINT LeftFootToe
          {
            OFFSET 0 0 4
            CHANNELS 6 Xposition Yposition Zposition Zrotation Xrotation Yrotation
            End Site
            {
              OFFSET 0 0 0
            }
          }
        }
      }
    }
  }
  JOINT RightUpLeg
  {
    OFFSET -10 0 0
    CHANNELS 6 Xposition Yposition Zposition Zrotation Xrotation Yrotation
    JOINT RightLeg
    {
      OFFSET 1.35724e-05 -49.4477 -0.999996
      CHANNELS 6 Xposition Yposition Zposition Zrotation Xrotation Yrotation
      JOINT RightFoot
      {
        OFFSET 1.20461e-05 -45.0524 -2
        CHANNELS 6 Xposition Yposition Zposition Zrotation Xrotation Yrotation
        JOINT RightToeBase
        {
          OFFSET 0 -7.5 12.5
          CHANNELS 6 Xposition Yposition Zposition Zrotation Xrotation Yrotation
          JOINT RightFootToe
          {
            OFFSET 0 0 4
            CHANNELS 6 Xposition Yposition Zposition Zrotation Xrotation Yrotation
            End Site
            {
              OFFSET 0 0 0
            }
          }
        }
      }
    }
  }
}
MOTION
Frames:	3
Frame Time:	0.0111111
205.718 101.91 -2.76603 -3.88162 2.01929 -138.294 2.84217e-14 6.79575 0 -1.12326 3.75012 0.912327 0 6.79575 2.84217e-14 -0.0901387 -1.42553 0.69031 2.84217e-14 6.79575 2.84217e-14 -0.210518 0.319712 6.67087 0 6.79575 -2.84217e-14 -0.292274 1.72685 5.55376 -1.42109e-14 14.441 0 -0.237768 -2.77364 6.48852 0 9.17427 0 -0.0606478 -6.50041 15.2065 5 17 2.84217e-14 4.28312 -0.392273 -10.3982 6.5 2.84217e-14 0 4.28006 -0.391785 -10.3976 6.5 -2.84217e-14 0 71.7343 -38.7451 35.53 0 -37.9535 -2 -57.1049 -79.4914 -47.6669 -1.42109e-14 -30.0465 2 28.1728 3.24043 -30.7133 -0.5 -1.5 2.65 -1.04718 0.204015 -0.808986 -1.42109e-14 -3.8 3.7 0.314828 7.04527 0.0673496 0 -3 2.7 0.024027 4.15916 -0.0449215 -2.84217e-14 -1.9 1.6 6.44464e-06 1.86115e-06 -3.02707e-06 1.42109e-14 -8.3 1.9 -0.0142456 -0.0724 0.0140191 0 -4.5 0 -0.000313433 0.00565726 2.64408e-06 1.42109e-14 -3.4 -2.84217e-14 7.38185e-07 0.00557763 5.52795e-06 -0.25 -2.2 0.4 6.44464e-06 1.86115e-06 -3.02707e-06 -1.42109e-14 -8.3 1 -0.25697 -2.44575 0.00197498 1.42109e-14 -4.65 0 -5.09336e-05 -7.39601e-06 2.21418e-05 0 -3.3 2.84217e-14 -3.18055e-15 4.77083e-15 6.36111e-15 -0.5 -2.15 -0.8 6.44464e-06 1.86115e-06 -3.02707e-06 0 -7.75 -0.2 -5.08142 -2.24487 -0.0581009 -2.84217e-14 -3.8 0 -2.5801e-05 -7.76499e-06 -1.67322e-06 -2.84217e-14 -3.4 0 9.54166e-15 1.59028e-15 -3.18055e-15 -0.75 -1.75 -1.85 6.44464e-06 1.86115e-06 -3.02707e-06 -1.42109e-14 -7.15 -1 -2.14434 -11.9201 0.0791921 1.42109e-14 -3 0 -4.59078 0.0193651 0.0504027 -2.84217e-14 -2.35 0 -4.31798 -0.00810048 0.00839 -5 17 0 -0.964967 -0.0710904 8.94652 -6.5 0 2.84217e-14 -0.95824 -0.0703521 8.94841 -6.5 -2.84217e-14 -2.84217e-14 -70.7101 -28.7352 -44.1105 2.84217e-14 -37.9535 -2 126.517 -69.9764 106.636 0 -30.0465 2 -25.1007 8.40638 4.6766 0.5 -1.5 2.65 2.11656 10.2447 3.21458 2.84217e-14 -3.8 3.7 0.514196 6.15635 -0.148436 0 -3 2.7 0.0870845 -2.74998 0.0169205 -2.84217e-14 -1.9 1.6 -7.19013e-06 -1.36097e-05 5.35855e-06 0 -8.3 1.9 0.565646 -6.35472 0.0181194 0 -4.5 2.84217e-14 0.000347277 -0.00182836 0.113907 0 -3.4 0 -0.00061589 -0.00185094 0.00792162 0.25 -2.2 0.4 -7.19013e-06 -1.36097e-05 5.35855e-06 0 -8.3 1 0.0789329 -2.37962 -0.0111952 -2.84217e-14 -4.65 2.84217e-14 1.13605 -0.000849054 0.000849385 0 -3.3 1.42109e-14 1.0014 0.0681784 0.00277177 0.5 -2.15 -0.8 -7.19013e-06 -1.36097e-05 5.35855e-06 -2.84217e-14 -7.75 -0.2 0.747932 -7.26138 -0.16297 -2.84217e-14 -3.8 0 0.0694882 0.00340735 0.00119344 0 -3.4 0 0.00583878 0.222063 -0.00655192 0.75 -1.75 -1.85 -7.19013e-06 -1.36097e-05 5.35855e-06 0 -7.15 -1 0.264455 -4.38227 -0.0367711 -2.84217e-14 -3 0 -1.27785e-06 -0.00205892 -0.00238451 0 -2.35 -2.84217e-14 -1.30115e-05 -0.00180663 -0.00216333 10 1.42109e-14 0 5.89818 -36.5154 -15.4074 0 -49.4477 -1 -1.32984 45.8973 -10.342 0 -45.0523 -2 -8.4193 -5.47143 32.823 0 -7.5 12.5 -2.85402e-06 -5.30875e-07 -2.02215e-08 -1.42109e-14 0 4 3.67818 -0.00531764 0.0867784 -10 0 -1.42109e-14 -3.96275 0.252354 3.28161 -2.84217e-14 -49.4477 -1 0.0132258 7.42522 -0.51839 -2.84217e-14 -45.0523 -2 2.64078 -3.70379 43.7636 -3.55271e-15 -7.5 12.5 -5.25489e-09 0.00250916 -1.51006e-10 3.55271e-15 0 4 -0.0428795 4.38944 -0.0162262 
205.308 101.878 -2.6841 -3.75498 2.0145 -138.578 2.84217e-14 6.79575 1.42109e-14 -1.07337 3.68622 0.822895 2.84217e-14 6.79575 2.84217e-14 -0.0911622 -1.45387 0.634567 2.84217e-14 6.79575 0 -0.209158 0.307036 6.69332 -2.84217e-14 6.79575 0 -0.286223 1.72423 5.58054 0 14.441 -2.84217e-14 -0.208132 -2.77554 6.52335 0 9.17427 0 0.0113205 -6.49822 15.2908 5 17 -2.84217e-14 4.3899 -0.402388 -10.4125 6.5 -2.84217e-14 0 4.39001 -0.402409 -10.4124 6.5 0 1.42109e-14 72.3153 -38.9321 36.2752 1.42109e-14 -37.9535 -2 -52.9066 -79.248 -43.219 0 -30.0465 2 27.5419 3.2879 -29.773 -0.5 -1.5 2.65 -1.18634 0.453923 -0.91272 0 -3.8 3.7 0.319975 7.15005 0.069482 -1.42109e-14 -3 2.7 0.0240232 4.15433 -0.0449213 0 -1.9 1.6 6.44464e-06 1.86115e-06 -3.02707e-06 0 -8.3 1.9 -0.0142439 -0.0789493 0.0140991 -1.42109e-14 -4.5 -2.84217e-14 -0.000313433 0.00565726 2.64408e-06 -1.42109e-14 -3.4 0 7.38185e-07 0.00557763 5.52795e-06 -0.25 -2.2 0.4 6.44464e-06 1.86115e-06 -3.02707e-06 1.42109e-14 -8.3 1 -0.256971 -2.40116 0.00197491 1.42109e-14 -4.65 0 -5.09336e-05 -7.39601e-06 2.21418e-05 0 -3.3 -2.84217e-14 6.36111e-15 3.18055e-15 6.36111e-15 -0.5 -2.15 -0.8 6.44464e-06 1.86115e-06 -3.02707e-06 -1.42109e-14 -7.75 -0.2 -5.08022 -2.17566 -0.0555996 -2.84217e-14 -3.8 0 -2.5801e-05 -7.76499e-06 -1.67322e-06 -1.42109e-14 -3.4 0 2.64834e-31 -4.77083e-15 3.18055e-15 -0.75 -1.75 -1.85 6.44464e-06 1.86115e-06 -3.02707e-06 -1.42109e-14 -7.15 -1 -2.12726 -11.8745 0.0791788 0 -3 0 -4.59035 0.0193651 0.050647 2.84217e-14 -2.35 0 -4.3176 -0.00810048 0.00839 -5 17 2.84217e-14 -1.16648 -0.0877473 9.03051 -6.5 0 2.84217e-14 -1.1682 -0.08798 9.03131 -6.5 2.84217e-14 0 -71.6393 -29.0558 -44.442 -2.84217e-14 -37.9535 -2 125.595 -70.5798 105.589 2.84217e-14 -30.0465 2 -24.9626 8.45803 4.38474 0.5 -1.5 2.65 2.22809 10.5039 3.28851 0 -3.8 3.7 0.523888 6.13252 -0.148429 -2.84217e-14 -3 2.7 0.0870552 -2.65097 0.0169191 0 -1.9 1.6 -7.19013e-06 -1.36097e-05 5.35855e-06 0 -8.3 1.9 0.570618 -6.38282 0.0181204 -2.84217e-14 -4.5 1.42109e-14 0.000259834 -0.00182836 0.113907 0 -3.4 -1.42109e-14 -0.000664547 -0.00185094 0.00792162 0.25 -2.2 0.4 -7.19013e-06 -1.36097e-05 5.35855e-06 -2.84217e-14 -8.3 1 0.0813052 -2.41691 -0.0111955 0 -4.65 -2.84217e-14 1.24661 -0.000849054 0.000849385 -2.84217e-14 -3.3 0 1.1093 0.0681784 0.00277177 0.5 -2.15 -0.8 -7.19013e-06 -1.36097e-05 5.35855e-06 0 -7.75 -0.2 0.751907 -7.2806 -0.162977 -2.84217e-14 -3.8 0 0.0694882 0.00340735 0.00119344 -2.84217e-14 -3.4 -1.42109e-14 0.00583878 0.222063 -0.00655192 0.75 -1.75 -1.85 -7.19013e-06 -1.36097e-05 5.35855e-06 0 -7.15 -1 0.264453 -4.38595 -0.0367712 0 -3 -1.42109e-14 -1.27785e-06 -0.00205892 -0.00238451 0 -2.35 0 -1.30115e-05 -0.00180663 -0.00216333 10 1.42109e-14 2.84217e-14 6.06048 -36.3753 -14.8976 -2.84217e-14 -49.4477 -1 -1.29243 45.9175 -10.394 2.84217e-14 -45.0523 -2 -8.66408 -5.85993 32.6194 1.42109e-14 -7.5 12.5 -2.85402e-06 -5.30875e-07 -2.02215e-08 0 -3.55271e-15 4 3.88496 -0.000292056 0.0930348 -10 1.42109e-14 2.84217e-14 -4.0949 0.272385 3.2433 0 -49.4477 -1 0.0125129 7.42082 -0.492759 0 -45.0523 -2 2.83343 -3.81919 43.7647 0 -7.5 12.5 -5.2549e-09 -0.00144165 -1.51006e-10 0 5.42101e-20 4 -0.291468 4.58473 -0.0182101 
204.873 101.842 -2.57683 -3.61705 2.00854 -138.874 0 6.79575 1.42109e-14 -1.01618 3.61502 0.752195 -2.84217e-14 6.79575 0 -0.0924023 -1.47409 0.59086 0 6.79575 0 -0.207783 0.294116 6.72059 0 6.79575 0 -0.281372 1.72129 5.60983 0 14.441 -2.84217e-14 -0.178735 -2.77816 6.54725 0 9.17427 2.84217e-14 0.0821339 -6.4986 15.3494 5 17 -2.84217e-14 4.50026 -0.412932 -10.4268 6.5 -2.84217e-14 0 4.49905 -0.41285 -10.4261 6.5 0 0 72.8817 -39.1417 37.0231 0 -37.9535 -2 -49.0058 -78.9086 -39.0421 -1.42109e-14 -30.0465 2 26.8918 3.31271 -28.7567 -0.5 -1.5 2.65 -1.33966 0.731049 -1.02859 0 -3.8 3.7 0.326233 7.25825 0.0724043 0 -3 2.7 0.0240228 4.15383 -0.0449212 2.84217e-14 -1.9 1.6 6.44464e-06 1.86115e-06 -3.02707e-06 1.42109e-14 -8.3 1.9 -0.0142434 -0.0791103 0.0144192 -1.42109e-14 -4.5 -2.84217e-14 -0.000313433 0.00565726 2.64408e-06 2.84217e-14 -3.4 0 7.38185e-07 0.00557763 5.52795e-06 -0.25 -2.2 0.4 6.44464e-06 1.86115e-06 -3.02707e-06 0 -8.3 1 -0.256973 -2.35752 0.00197485 -1.42109e-14 -4.65 0 -5.09336e-05 -7.39601e-06 2.21418e-05 2.84217e-14 -3.3 0 3.18055e-15 6.36111e-15 3.18055e-15 -0.5 -2.15 -0.8 6.44464e-06 1.86115e-06 -3.02707e-06 0 -7.75 -0.2 -5.07878 -2.11359 -0.053044 1.42109e-14 -3.8 2.84217e-14 -2.5801e-05 -7.76499e-06 -1.67322e-06 -1.42109e-14 -3.4 0 6.36111e-15 1.59028e-15 -1.59028e-15 -0.75 -1.75 -1.85 6.44464e-06 1.86115e-06 -3.02707e-06 1.42109e-14 -7.15 -1 -2.10941 -11.8278 0.0791653 1.42109e-14 -3 0 -4.59209 0.0193651 0.0516266 -1.42109e-14 -2.35 0 -4.31914 -0.00810048 0.00839 -5 17 0 -1.37587 -0.105503 9.10547 -6.5 2.84217e-14 0 -1.38214 -0.106251 9.10769 -6.5 2.84217e-14 2.84217e-14 -72.5552 -29.35 -44.6995 -2.84217e-14 -37.9535 -2 124.652 -71.2049 104.488 0 -30.0465 2 -24.8055 8.46313 4.13428 0.5 -1.5 2.65 2.32548 10.7363 3.32081 0 -3.8 3.7 0.532146 6.10236 -0.148421 0 -3 2.7 0.0870191 -2.52859 0.0169175 2.84217e-14 -1.9 1.6 -7.19013e-06 -1.36097e-05 5.35855e-06 -2.84217e-14 -8.3 1.9 0.575157 -6.40933 0.0181214 0 -4.5 -2.84217e-14 -0.0010154 -0.00182836 0.113907 2.84217e-14 -3.4 1.42109e-14 -0.00178379 -0.00185094 0.00792162 0.25 -2.2 0.4 -7.19013e-06 -1.36097e-05 5.35855e-06 2.84217e-14 -8.3 1 0.083616 -2.45166 -0.0111958 0 -4.65 0 1.34232 -0.000849054 0.000849385 -2.84217e-14 -3.3 0 1.20241 0.0681784 0.00277177 0.5 -2.15 -0.8 -7.19013e-06 -1.36097e-05 5.35855e-06 0 -7.75 -0.2 0.753651 -7.29176 -0.162981 0 -3.8 1.42109e-14 0.0694882 0.00340735 0.00119344 -2.84217e-14 -3.4 0 0.00583878 0.222063 -0.00655192 0.75 -1.75 -1.85 -7.19013e-06 -1.36097e-05 5.35855e-06 0 -7.15 -1 0.264452 -4.38687 -0.0367713 0 -3 0 -1.27785e-06 -0.00205892 -0.00238451 0 -2.35 -1.42109e-14 -1.30115e-05 -0.00180663 -0.00216333 10 0 1.42109e-14 6.23721 -36.2236 -14.3889 2.84217e-14 -49.4477 -1 -1.23787 45.9167 -10.4775 2.84217e-14 -45.0523 -2 -8.91856 -6.25589 32.3852 1.42109e-14 -7.5 12.5 -2.85402e-06 -5.30875e-07 -2.02215e-08 0 0 4 4.08591 0.00277412 0.109632 -10 -1.42109e-14 2.84217e-14 -4.24476 0.29007 3.18535 -2.84217e-14 -49.4477 -1 0.0118067 7.39747 -0.462721 0 -45.0523 -2 3.04801 -3.9195 43.7566 0 -7.5 12.5 -5.25492e-09 -0.00785465 -1.51006e-10 3.55271e-15 0 4 -0.549764 4.78346 -0.0194308 
